HIERARCHY
ROOT HipCenter
{
    OFFSET 0.0 0.0 -0.0
    CHANNELS 6 Xposition Yposition Zposition Zrotation Xrotation Yrotation
    JOINT Spine
    {
        OFFSET 0.0 11.721613883972168 0.0
        CHANNELS 3 Zrotation Xrotation Yrotation
        JOINT ShoulderCenter
        {
            OFFSET 0.0 31.77381706237793 0.0
            CHANNELS 3 Zrotation Xrotation Yrotation
            JOINT LeftShoulder
            {
                OFFSET 18.010040283203125 0.0 0.0
                CHANNELS 3 Zrotation Xrotation Yrotation
                JOINT LeftElbow
                {
                    OFFSET 32.60741424560547 0.0 0.0
                    CHANNELS 3 Zrotation Xrotation Yrotation
                    JOINT LeftWrist
                    {
                        OFFSET 27.714447021484375 0.0 0.0
                        CHANNELS 3 Zrotation Xrotation Yrotation
                        JOINT LeftHand
                        {
                            OFFSET 3.4892609119415283 0.0 0.0
                            CHANNELS 3 Zrotation Xrotation Yrotation
                            End Site
                            {
                                OFFSET 1.3957042694091797 0.0 0.0
                            }
                        }
                    }
                }
            }
            JOINT RightShoulder
            {
                OFFSET -18.010040283203125 0.0 0.0
                CHANNELS 3 Zrotation Xrotation Yrotation
                JOINT RightElbow
                {
                    OFFSET -32.60741424560547 0.0 0.0
                    CHANNELS 3 Zrotation Xrotation Yrotation
                    JOINT RightWrist
                    {
                        OFFSET -27.714447021484375 0.0 0.0
                        CHANNELS 3 Zrotation Xrotation Yrotation
                        JOINT RightHand
                        {
                            OFFSET -3.4892609119415283 0.0 0.0
                            CHANNELS 3 Zrotation Xrotation Yrotation
                            End Site
                            {
                                OFFSET -1.3957042694091797 0.0 0.0
                            }
                        }
                    }
                }
            }
            End Site
            {
                OFFSET 0.0 12.709527015686035 0.0
            }
        }
    }
    JOINT LeftHip
    {
        OFFSET 14.216002464294434 0.0 0.0
        CHANNELS 3 Zrotation Xrotation Yrotation
        JOINT LeftKnee
        {
            OFFSET 0.0 -46.875877380371094 0.0
            CHANNELS 3 Zrotation Xrotation Yrotation
            JOINT LeftAnkle
            {
                OFFSET 0.0 -43.35424041748047 0.0
                CHANNELS 3 Zrotation Xrotation Yrotation
                JOINT LeftFoot
                {
                    OFFSET 0.0 -11.571256637573242 0.0
                    CHANNELS 3 Zrotation Xrotation Yrotation
                    End Site
                    {
                        OFFSET 0.0 0.0 4.62850284576416
                    }
                }
            }
        }
    }
    JOINT RightHip
    {
        OFFSET -14.216002464294434 0.0 0.0
        CHANNELS 3 Zrotation Xrotation Yrotation
        JOINT RightKnee
        {
            OFFSET 0.0 -46.875877380371094 0.0
            CHANNELS 3 Zrotation Xrotation Yrotation
            JOINT RightAnkle
            {
                OFFSET 0.0 -43.35424041748047 0.0
                CHANNELS 3 Zrotation Xrotation Yrotation
                JOINT RightFoot
                {
                    OFFSET 0.0 -11.571256637573242 0.0
                    CHANNELS 3 Zrotation Xrotation Yrotation
                    End Site
                    {
                        OFFSET 0.0 0.0 4.62850284576416
                    }
                }
            }
        }
    }
}
MOTION
Frames: 4
Frame Time: 0.03333333333333333
161.1999969482422 3.5 -5.400000095367432 5.906127071035088 -6.360735242757776 -163.88312244514728 0.9102107619868077 -1.814335009455707 -0.052213243916198374 -4.1464438163376717e-07 -9.578705933045887e-07 0.03320276426623987 97.63596621679363 -2.0736977316728664 176.97477047521565 -5.402538779871152e-07 2.6532468055052523e-07 34.50002838473174 179.99999542704845 -40.49534045101531 -145.10081421999914 2.782985346280577e-15 0.0 0.0 -96.1089978958717 11.079118462820656 -171.45327472720493 8.874563963114699e-07 2.216682364349217e-06 -29.48451169828618 2.4588428211979023e-06 24.30181642946881 -33.62158390236957 -4.4139062980501586e-32 -7.951386703658792e-16 -6.3611093629270335e-15 -0.18518905620665044 -24.80311662532957 13.77621655800986 3.660896885411588 29.418913450985357 -35.43294500171684 101.65327933065372 -51.90691312637454 153.32483032422914 -6.3611093629270335e-15 -1.7655625192200634e-31 3.1805546814635168e-15 2.3360219615582665 -17.691842018206298 -5.305220194216476 -8.791173666187428 55.8967845026465 56.610169707082896 -82.87309424060949 -46.40030339474702 -119.59247808729411 0.0 0.0 3.1805546814635164e-15
160.6999969482422 3.4000000953674316 -6.599999904632568 6.449549758074543 -6.40906041045423 -162.07977212044798 1.1749566685024653 -1.4340883905992046 -0.041312293534245696 -1.0568067229536553e-07 -1.5311536611450288e-07 -0.5151826371022379 98.06101395887725 -3.4882080538288793 -179.98534190143323 -9.343814848478976e-07 1.276996638184621e-06 33.40864008283845 179.99999647882342 -42.34018502107333 -143.22272205202378 -2.7829853462805768e-15 -3.862168010793889e-32 1.5902773407317582e-15 -95.42978819199047 9.740568763817132 -173.6288957983853 2.2422091685547571e-07 1.6591492680313429e-06 -29.57654823257168 -7.635105957790843e-07 18.901157346169025 -33.612645240305625 0.0 6.3611093629270335e-15 0.0 -0.1389725711974199 -24.846863037174604 14.049639668996441 4.0924084530229505 30.174316438917735 -36.60373230522757 101.16083826101688 -52.63609098474886 152.5959802255857 -6.3611093629270335e-15 6.3611093629270335e-15 -4.770832022195275e-15 3.3812005988510663 -20.942785058251246 -9.227250746196335 -15.928570559044108 52.87194617692008 62.306109856350304 -83.63595895378616 -46.55410764971989 -125.60783000953985 7.951386703658792e-16 6.3611093629270335e-15 -4.4139062980501586e-32
160.1999969482422 3.0999999046325684 -7.800000190734863 6.881694070585176 -6.348703969743313 -160.1951498111375 1.3852753503204753 -0.9139238984188178 -0.025534057076768014 3.1377929625708893e-07 -4.709618212748181e-07 -0.8032544635798746 98.61410304399139 -4.893580356801946 -176.45112165090433 4.4085382090723385e-06 2.061509585780895e-06 31.865911746692912 179.99999428476093 -39.99574065277434 -143.05881522370916 3.1805546814635168e-15 4.4139062980501586e-32 1.5902773407317584e-15 -95.31636823309314 7.956553533152125 -175.09980585687498 -1.0009875325185452e-07 -5.219995075166948e-07 -31.19054838018367 2.9323944780272852e-06 19.835190254761294 -36.46299420654403 -6.3611093629270335e-15 -7.951386703658792e-15 -4.413906298050159e-31 -0.31502862154450767 -24.66117828300082 13.129976448371613 4.186793812935242 31.121307703683044 -37.32067037160241 102.49236340768101 -52.42440726847096 153.30986696386424 0.0 0.0 -1.5902773407317584e-15 4.062277443484192 -23.625207697474714 -11.577919616245701 -18.49082673013589 48.82482036221067 62.52602316159073 -85.85553169977494 -47.482140249357 -132.10496391764926 -1.5902773407317582e-15 0.0 0.0
159.6999969482422 3.0999999046325684 -9.0 7.368050959378486 -6.825440405152864 -158.32565045967945 1.415859625178253 -1.0927476637210796 -0.023501181508474918 6.837260601237892e-08 -1.9926425798238517e-07 -1.1961568058485461 99.13359218201524 -7.219143577559742 -173.86374398249725 -1.937989116018997e-06 2.4837168396829393e-07 31.37981378637585 -179.99999706476467 -40.43689069029804 -144.6232369672605 -1.987846675914698e-15 0.0 0.0 -95.47794372988166 5.701496043728428 -176.3230721037555 5.934894750473667e-07 1.195041469531662e-06 -33.548619519108705 1.4049663090879207e-06 17.735444957864473 -37.82852390442833 0.0 -1.590277340731758e-15 0.0 -0.593213883342472 -24.96924754955494 13.070926083390834 4.893409682116912 31.56102702386636 -38.43496854471263 104.26900182416759 -53.836336864604284 154.66394816998897 2.648343778830095e-31 -6.3611093629270335e-15 4.770832022195275e-15 4.527535030165826 -26.4180108241103 -13.973184910775649 -20.012125575298178 43.74858182501088 61.196410752412966 -87.7623521235869 -48.559912472212915 -138.45818248799387 3.1805546814635168e-15 -6.3611093629270335e-15 -1.5902773407317582e-15
